<svg xmlns="http://www.w3.org/2000/svg" xmlns:xlink="http://www.w3.org/1999/xlink"><defs><style>
    .sprite-symbol-usage {display: none;}
    .sprite-symbol-usage:target {display: inline;}
  </style><symbol viewBox="0 0 7 15" id="icon_tagging"><path d="M6.978 6.958a.213.213 0 0 0-.184-.114l-2.975-.072L6.311.275a.2.2 0 0 0-.1-.254.215.215 0 0 0-.277.079L.033 9.169a.2.2 0 0 0 0 .215.213.213 0 0 0 .2.1l2.933-.227-2.39 5.46a.2.2 0 0 0 .091.258.218.218 0 0 0 .1.027.213.213 0 0 0 .171-.085l5.821-7.748a.2.2 0 0 0 .019-.211" /></symbol><symbol viewBox="0 0 135.994 23.234" id="logo"><path d="M90.524 23.234a9.438 9.438 0 0 1-8.78-5.967 9.285 9.285 0 0 1-.486-1.661 9.627 9.627 0 0 1-.174-1.81 9.44 9.44 0 0 1 18.716-1.76 9.524 9.524 0 0 1-.01 3.569H85.435a5.4 5.4 0 0 0 9.222 1.661H99.3a9.438 9.438 0 0 1-8.779 5.967Zm0-14.837a5.4 5.4 0 0 0-5.1 3.64h10.203A5.4 5.4 0 0 0 90.524 8.4Zm-38.74 14.837a9.429 9.429 0 0 1-9.265-7.628 9.556 9.556 0 0 1-.174-1.81 9.439 9.439 0 0 1 18.713-1.759 9.5 9.5 0 0 1-.009 3.569H46.7a5.4 5.4 0 0 0 9.221 1.661h4.645a9.438 9.438 0 0 1-8.779 5.967Zm0-14.837a5.4 5.4 0 0 0-5.1 3.64h10.203A5.4 5.4 0 0 0 51.784 8.4ZM9.439 23.234a9.44 9.44 0 0 1-8.78-5.967 9.309 9.309 0 0 1-.484-1.661 9.439 9.439 0 1 1 18.538-3.569 9.524 9.524 0 0 1-.01 3.569H4.351a5.4 5.4 0 0 0 9.222 1.661h4.645a9.438 9.438 0 0 1-8.779 5.967Zm0-14.837a5.4 5.4 0 0 0-5.1 3.64h10.203A5.4 5.4 0 0 0 9.439 8.4Zm61.9 14.815h-4.92V4.406H71.1v3.811h.07a6.1 6.1 0 0 1 .93-1.542 6.189 6.189 0 0 1 1.352-1.212 6.632 6.632 0 0 1 1.627-.779 5.918 5.918 0 0 1 1.8-.277 3.859 3.859 0 0 1 1.074.173v4.573a9.995 9.995 0 0 0-.832-.122 8.945 8.945 0 0 0-.935-.052 5.256 5.256 0 0 0-2.286.451 3.981 3.981 0 0 0-1.5 1.23 4.959 4.959 0 0 0-.814 1.819 9.991 9.991 0 0 0-.242 2.252v8.48Zm-38.1 0h-5.472L21.634 4.485H26.8l3.783 12.793h.07l3.765-12.793H39.3L33.241 23.21Zm99.3-.087a14.468 14.468 0 0 1-2.165-.156 5.117 5.117 0 0 1-1.8-.607 3.211 3.211 0 0 1-1.229-1.282 4.587 4.587 0 0 1-.451-2.183V7.7h-2.98V4.406h2.98V.843h4.92v3.563h3.6V7.7h-3.6v9.5a2.424 2.424 0 0 0 .415 1.663 2.422 2.422 0 0 0 1.663.416c.289 0 .55-.011.8-.035a6.431 6.431 0 0 0 .727-.1v3.812a11.82 11.82 0 0 1-1.385.139c-.519.017-1.02.029-1.496.029Zm-19.877 0a14.967 14.967 0 0 1-3.049-.311 8.085 8.085 0 0 1-2.65-1.04 5.953 5.953 0 0 1-1.905-1.922 6.044 6.044 0 0 1-.815-3h4.677a2.7 2.7 0 0 0 .329 1.368 2.864 2.864 0 0 0 .849.936 3.652 3.652 0 0 0 1.2.536 5.606 5.606 0 0 0 1.4.174 5.224 5.224 0 0 0 1.092-.122 3.682 3.682 0 0 0 1.039-.381 2.369 2.369 0 0 0 .779-.693 1.828 1.828 0 0 0 .312-1.091c0-.736-.5-1.3-1.473-1.663a29.533 29.533 0 0 0-4.1-1.109 24.571 24.571 0 0 1-2.1-.571 7.134 7.134 0 0 1-1.818-.868 4.2 4.2 0 0 1-1.283-1.35 3.849 3.849 0 0 1-.485-1.993 5.407 5.407 0 0 1 .676-2.84 5 5 0 0 1 1.785-1.75 7.884 7.884 0 0 1 2.494-.9 15.481 15.481 0 0 1 2.84-.259 14.365 14.365 0 0 1 2.824.276 7.556 7.556 0 0 1 2.443.936 5.655 5.655 0 0 1 1.785 1.75 5.917 5.917 0 0 1 .849 2.755h-4.678a2.162 2.162 0 0 0-1.079-1.924 4.946 4.946 0 0 0-2.287-.5 8.625 8.625 0 0 0-.9.052 3.023 3.023 0 0 0-.885.225 1.833 1.833 0 0 0-.675.5 1.331 1.331 0 0 0-.278.884 1.353 1.353 0 0 0 .486 1.074 3.748 3.748 0 0 0 1.264.676 15.789 15.789 0 0 0 1.784.467c.675.141 1.363.292 2.044.451a21.153 21.153 0 0 1 2.1.59 6.943 6.943 0 0 1 1.819.917 4.488 4.488 0 0 1 1.282 1.421 4.186 4.186 0 0 1 .486 2.1 5.441 5.441 0 0 1-2.565 4.885 7.583 7.583 0 0 1-2.615 1.021 15.343 15.343 0 0 1-2.999.292Zm21.95-20.437a1.485 1.485 0 0 1-.525-.094 1.339 1.339 0 0 1-.44-.27 1.307 1.307 0 0 1-.418-.983 1.333 1.333 0 0 1 .113-.554 1.314 1.314 0 0 1 .3-.423 1.358 1.358 0 0 1 .44-.269 1.452 1.452 0 0 1 .525-.1 1.468 1.468 0 0 1 .524.1 1.352 1.352 0 0 1 .44.269 1.3 1.3 0 0 1 .3.423 1.319 1.319 0 0 1 .113.554 1.323 1.323 0 0 1-.113.558 1.3 1.3 0 0 1-.3.425 1.328 1.328 0 0 1-.44.27 1.5 1.5 0 0 1-.519.094Zm0-2.4a1.011 1.011 0 0 0-.721.3 1.083 1.083 0 0 0-.215.333 1.113 1.113 0 0 0-.079.423 1.125 1.125 0 0 0 .079.425 1.084 1.084 0 0 0 .215.337.987.987 0 0 0 .323.221 1.029 1.029 0 0 0 .792 0 .963.963 0 0 0 .322-.221 1.076 1.076 0 0 0 .217-.337 1.092 1.092 0 0 0 .081-.425 1.081 1.081 0 0 0-.081-.423 1.055 1.055 0 0 0-.217-.333.969.969 0 0 0-.322-.219.99.99 0 0 0-.394-.082Zm-.238 1.812h-.3V.586h.569a.805.805 0 0 1 .437.1.387.387 0 0 1 .152.346.451.451 0 0 1-.031.178.307.307 0 0 1-.085.121.358.358 0 0 1-.125.072.589.589 0 0 1-.155.032l.4.657h-.312l-.367-.644h-.188v.644Zm0-1.274v.4h.267a.536.536 0 0 0 .212-.037c.055-.023.083-.082.083-.173a.15.15 0 0 0-.03-.1.189.189 0 0 0-.074-.057.322.322 0 0 0-.1-.026.755.755 0 0 0-.105-.007Z" fill="#bd243a" /></symbol><symbol viewBox="0 0 136 23" id="logo_footer"><path d="M90.527 23a9.446 9.446 0 0 1-5.366-1.656 9.349 9.349 0 0 1-3.414-4.251 9.237 9.237 0 0 1-.486-1.645 9.431 9.431 0 0 1-.174-1.791 9.3 9.3 0 0 1 .166-1.742 9.436 9.436 0 1 1 18.539 3.533H85.44a5.3 5.3 0 0 0 .954 1.645 5.43 5.43 0 0 0 8.267 0h4.646a9.331 9.331 0 0 1-3.413 4.251A9.448 9.448 0 0 1 90.527 23Zm0-14.688a5.4 5.4 0 0 0-5.1 3.6h10.204a5.4 5.4 0 0 0-5.104-3.6ZM51.786 23a9.444 9.444 0 0 1-8.78-5.907 9.341 9.341 0 0 1 8.78-12.78 9.342 9.342 0 0 1 9.266 11.135H46.7a5.289 5.289 0 0 0 .953 1.645 5.432 5.432 0 0 0 8.269 0h4.645a9.343 9.343 0 0 1-3.413 4.251A9.448 9.448 0 0 1 51.786 23Zm0-14.688a5.4 5.4 0 0 0-5.1 3.6H56.89a5.4 5.4 0 0 0-5.104-3.6ZM9.439 23a9.444 9.444 0 0 1-8.78-5.907 9.142 9.142 0 0 1-.484-1.645 9.286 9.286 0 0 1-.01-3.533 9.459 9.459 0 0 1 18.549 0 9.334 9.334 0 0 1-.01 3.533H4.352a5.289 5.289 0 0 0 .948 1.645 5.431 5.431 0 0 0 8.268 0h4.646a9.346 9.346 0 0 1-3.414 4.251A9.446 9.446 0 0 1 9.439 23Zm0-14.688a5.4 5.4 0 0 0-5.1 3.6h10.204a5.4 5.4 0 0 0-5.104-3.6Zm61.9 14.665h-4.92V4.361H71.1v3.773h.07a5.947 5.947 0 0 1 .93-1.526 6.127 6.127 0 0 1 1.351-1.2 6.664 6.664 0 0 1 1.628-.772 5.962 5.962 0 0 1 1.8-.274 3.885 3.885 0 0 1 1.074.171V9.06a10.06 10.06 0 0 0-.832-.121 9.19 9.19 0 0 0-.935-.051 5.306 5.306 0 0 0-2.288.446 3.981 3.981 0 0 0-1.498 1.218 4.869 4.869 0 0 0-.814 1.8 9.793 9.793 0 0 0-.242 2.229v8.394Zm-38.1 0h-5.471L21.635 4.439H26.8L30.581 17.1h.07L34.42 4.439h4.886l-6.063 18.537Zm99.3-.086a14.5 14.5 0 0 1-2.166-.155 5.158 5.158 0 0 1-1.8-.6 3.2 3.2 0 0 1-1.23-1.269 4.515 4.515 0 0 1-.45-2.162V7.619h-2.981V4.361h2.988V.834h4.92v3.527h3.6v3.258h-3.6v9.406a2.382 2.382 0 0 0 .415 1.646 2.436 2.436 0 0 0 1.663.412c.272 0 .541-.012.8-.034a6.863 6.863 0 0 0 .727-.1v3.773a11.84 11.84 0 0 1-1.385.138c-.518.019-1.02.031-1.495.031Zm-19.878 0a15.094 15.094 0 0 1-3.049-.309 8.135 8.135 0 0 1-2.651-1.03 5.631 5.631 0 0 1-2.72-4.87h4.678a2.657 2.657 0 0 0 .329 1.354 2.839 2.839 0 0 0 .849.926 3.688 3.688 0 0 0 1.2.532 5.7 5.7 0 0 0 1.4.171 5.278 5.278 0 0 0 1.092-.12 3.782 3.782 0 0 0 1.039-.377 2.379 2.379 0 0 0 .779-.686 1.8 1.8 0 0 0 .312-1.081c0-.728-.5-1.281-1.473-1.646a29.9 29.9 0 0 0-4.1-1.1 24.49 24.49 0 0 1-2.1-.565 7.185 7.185 0 0 1-1.819-.859 4.188 4.188 0 0 1-1.282-1.337 3.771 3.771 0 0 1-.485-1.972 5.312 5.312 0 0 1 .676-2.812 4.982 4.982 0 0 1 1.784-1.733 7.922 7.922 0 0 1 2.495-.892 15.64 15.64 0 0 1 2.84-.257 14.5 14.5 0 0 1 2.824.274 7.583 7.583 0 0 1 2.443.926 5.639 5.639 0 0 1 1.786 1.732 5.811 5.811 0 0 1 .848 2.727h-4.676a2.132 2.132 0 0 0-1.073-1.9 4.982 4.982 0 0 0-2.288-.5 8.4 8.4 0 0 0-.9.052 3.023 3.023 0 0 0-.884.222 1.822 1.822 0 0 0-.676.5 1.312 1.312 0 0 0-.277.876 1.331 1.331 0 0 0 .486 1.062 3.752 3.752 0 0 0 1.264.669 15.973 15.973 0 0 0 1.784.464c.625.128 1.294.274 2.044.446a21.374 21.374 0 0 1 2.1.582 6.981 6.981 0 0 1 1.819.909 4.454 4.454 0 0 1 1.282 1.406 4.117 4.117 0 0 1 .486 2.075 5.374 5.374 0 0 1-2.565 4.837 7.641 7.641 0 0 1-2.615 1.011 15.48 15.48 0 0 1-3 .293Zm21.957-20.23a1.512 1.512 0 0 1-.525-.093 1.333 1.333 0 0 1-.44-.267 1.287 1.287 0 0 1-.418-.973 1.313 1.313 0 0 1 .113-.549 1.313 1.313 0 0 1 .3-.418 1.4 1.4 0 0 1 .44-.267 1.485 1.485 0 0 1 .53-.094 1.5 1.5 0 0 1 .524.094 1.376 1.376 0 0 1 .44.267 1.278 1.278 0 0 1 .418.968 1.292 1.292 0 0 1-.113.553 1.278 1.278 0 0 1-.3.42 1.315 1.315 0 0 1-.44.267 1.529 1.529 0 0 1-.529.092Zm0-2.377a1.011 1.011 0 0 0-.4.079.982.982 0 0 0-.323.217 1.057 1.057 0 0 0-.215.329 1.086 1.086 0 0 0-.079.419 1.071 1.071 0 0 0 .294.754 1.026 1.026 0 0 0 1.115.219.97.97 0 0 0 .322-.219 1.073 1.073 0 0 0 .3-.754 1.051 1.051 0 0 0-.3-.748.97.97 0 0 0-.322-.217 1.012 1.012 0 0 0-.392-.079Zm-.239 1.79h-.3V.581h.569a.811.811 0 0 1 .437.1.377.377 0 0 1 .152.342.44.44 0 0 1-.031.176.3.3 0 0 1-.085.119.388.388 0 0 1-.121.072.691.691 0 0 1-.155.031l.4.651h-.312l-.367-.638h-.188v.638Zm0-1.262V1.2h.267a.54.54 0 0 0 .212-.036c.055-.022.083-.079.083-.17a.147.147 0 0 0-.03-.1.186.186 0 0 0-.074-.056.322.322 0 0 0-.1-.026.738.738 0 0 0-.105-.007Z" fill="#fff" /></symbol></defs><use id="icon_tagging-usage" xlink:href="#icon_tagging" class="sprite-symbol-usage" /><use id="logo-usage" xlink:href="#logo" class="sprite-symbol-usage" /><use id="logo_footer-usage" xlink:href="#logo_footer" class="sprite-symbol-usage" /></svg>