<svg xmlns="http://www.w3.org/2000/svg" xmlns:xlink="http://www.w3.org/1999/xlink"><defs><style>
    .sprite-symbol-usage {display: none;}
    .sprite-symbol-usage:target {display: inline;}
  </style><symbol viewBox="0 0 23 33" id="c_icon"><text data-name="©" transform="translate(0 27)" font-size="25.41" font-family="SegoeUI, Segoe UI"><tspan x="0" y="0">©</tspan></text></symbol><symbol viewBox="0 0 10 19" id="facebook"><path d="m9.345 10.688.519-3.439H6.621V5.018A1.7 1.7 0 0 1 8.526 3.16H10V.232A17.673 17.673 0 0 0 7.383 0c-2.67 0-4.415 1.647-4.415 4.628v2.621H0v3.439h2.968V19h3.653v-8.312Z" /></symbol><symbol viewBox="0 0 7 15" id="icon_tagging"><path d="M6.978 6.958a.213.213 0 0 0-.184-.114l-2.975-.072L6.311.275a.2.2 0 0 0-.1-.254.215.215 0 0 0-.277.079L.033 9.169a.2.2 0 0 0 0 .215.213.213 0 0 0 .2.1l2.933-.227-2.39 5.46a.2.2 0 0 0 .091.258.218.218 0 0 0 .1.027.213.213 0 0 0 .171-.085l5.821-7.748a.2.2 0 0 0 .019-.211" /></symbol><symbol viewBox="0 0 135.994 23.234" id="logo"><path d="M90.524 23.234a9.438 9.438 0 0 1-8.78-5.967 9.285 9.285 0 0 1-.486-1.661 9.627 9.627 0 0 1-.174-1.81 9.44 9.44 0 0 1 18.716-1.76 9.524 9.524 0 0 1-.01 3.569H85.435a5.4 5.4 0 0 0 9.222 1.661H99.3a9.438 9.438 0 0 1-8.779 5.967Zm0-14.837a5.4 5.4 0 0 0-5.1 3.64h10.203A5.4 5.4 0 0 0 90.524 8.4Zm-38.74 14.837a9.429 9.429 0 0 1-9.265-7.628 9.556 9.556 0 0 1-.174-1.81 9.439 9.439 0 0 1 18.713-1.759 9.5 9.5 0 0 1-.009 3.569H46.7a5.4 5.4 0 0 0 9.221 1.661h4.645a9.438 9.438 0 0 1-8.779 5.967Zm0-14.837a5.4 5.4 0 0 0-5.1 3.64h10.203A5.4 5.4 0 0 0 51.784 8.4ZM9.439 23.234a9.44 9.44 0 0 1-8.78-5.967 9.309 9.309 0 0 1-.484-1.661 9.439 9.439 0 1 1 18.538-3.569 9.524 9.524 0 0 1-.01 3.569H4.351a5.4 5.4 0 0 0 9.222 1.661h4.645a9.438 9.438 0 0 1-8.779 5.967Zm0-14.837a5.4 5.4 0 0 0-5.1 3.64h10.203A5.4 5.4 0 0 0 9.439 8.4Zm61.9 14.815h-4.92V4.406H71.1v3.811h.07a6.1 6.1 0 0 1 .93-1.542 6.189 6.189 0 0 1 1.352-1.212 6.632 6.632 0 0 1 1.627-.779 5.918 5.918 0 0 1 1.8-.277 3.859 3.859 0 0 1 1.074.173v4.573a9.995 9.995 0 0 0-.832-.122 8.945 8.945 0 0 0-.935-.052 5.256 5.256 0 0 0-2.286.451 3.981 3.981 0 0 0-1.5 1.23 4.959 4.959 0 0 0-.814 1.819 9.991 9.991 0 0 0-.242 2.252v8.48Zm-38.1 0h-5.472L21.634 4.485H26.8l3.783 12.793h.07l3.765-12.793H39.3L33.241 23.21Zm99.3-.087a14.468 14.468 0 0 1-2.165-.156 5.117 5.117 0 0 1-1.8-.607 3.211 3.211 0 0 1-1.229-1.282 4.587 4.587 0 0 1-.451-2.183V7.7h-2.98V4.406h2.98V.843h4.92v3.563h3.6V7.7h-3.6v9.5a2.424 2.424 0 0 0 .415 1.663 2.422 2.422 0 0 0 1.663.416c.289 0 .55-.011.8-.035a6.431 6.431 0 0 0 .727-.1v3.812a11.82 11.82 0 0 1-1.385.139c-.519.017-1.02.029-1.496.029Zm-19.877 0a14.967 14.967 0 0 1-3.049-.311 8.085 8.085 0 0 1-2.65-1.04 5.953 5.953 0 0 1-1.905-1.922 6.044 6.044 0 0 1-.815-3h4.677a2.7 2.7 0 0 0 .329 1.368 2.864 2.864 0 0 0 .849.936 3.652 3.652 0 0 0 1.2.536 5.606 5.606 0 0 0 1.4.174 5.224 5.224 0 0 0 1.092-.122 3.682 3.682 0 0 0 1.039-.381 2.369 2.369 0 0 0 .779-.693 1.828 1.828 0 0 0 .312-1.091c0-.736-.5-1.3-1.473-1.663a29.533 29.533 0 0 0-4.1-1.109 24.571 24.571 0 0 1-2.1-.571 7.134 7.134 0 0 1-1.818-.868 4.2 4.2 0 0 1-1.283-1.35 3.849 3.849 0 0 1-.485-1.993 5.407 5.407 0 0 1 .676-2.84 5 5 0 0 1 1.785-1.75 7.884 7.884 0 0 1 2.494-.9 15.481 15.481 0 0 1 2.84-.259 14.365 14.365 0 0 1 2.824.276 7.556 7.556 0 0 1 2.443.936 5.655 5.655 0 0 1 1.785 1.75 5.917 5.917 0 0 1 .849 2.755h-4.678a2.162 2.162 0 0 0-1.079-1.924 4.946 4.946 0 0 0-2.287-.5 8.625 8.625 0 0 0-.9.052 3.023 3.023 0 0 0-.885.225 1.833 1.833 0 0 0-.675.5 1.331 1.331 0 0 0-.278.884 1.353 1.353 0 0 0 .486 1.074 3.748 3.748 0 0 0 1.264.676 15.789 15.789 0 0 0 1.784.467c.675.141 1.363.292 2.044.451a21.153 21.153 0 0 1 2.1.59 6.943 6.943 0 0 1 1.819.917 4.488 4.488 0 0 1 1.282 1.421 4.186 4.186 0 0 1 .486 2.1 5.441 5.441 0 0 1-2.565 4.885 7.583 7.583 0 0 1-2.615 1.021 15.343 15.343 0 0 1-2.999.292Zm21.95-20.437a1.485 1.485 0 0 1-.525-.094 1.339 1.339 0 0 1-.44-.27 1.307 1.307 0 0 1-.418-.983 1.333 1.333 0 0 1 .113-.554 1.314 1.314 0 0 1 .3-.423 1.358 1.358 0 0 1 .44-.269 1.452 1.452 0 0 1 .525-.1 1.468 1.468 0 0 1 .524.1 1.352 1.352 0 0 1 .44.269 1.3 1.3 0 0 1 .3.423 1.319 1.319 0 0 1 .113.554 1.323 1.323 0 0 1-.113.558 1.3 1.3 0 0 1-.3.425 1.328 1.328 0 0 1-.44.27 1.5 1.5 0 0 1-.519.094Zm0-2.4a1.011 1.011 0 0 0-.721.3 1.083 1.083 0 0 0-.215.333 1.113 1.113 0 0 0-.079.423 1.125 1.125 0 0 0 .079.425 1.084 1.084 0 0 0 .215.337.987.987 0 0 0 .323.221 1.029 1.029 0 0 0 .792 0 .963.963 0 0 0 .322-.221 1.076 1.076 0 0 0 .217-.337 1.092 1.092 0 0 0 .081-.425 1.081 1.081 0 0 0-.081-.423 1.055 1.055 0 0 0-.217-.333.969.969 0 0 0-.322-.219.99.99 0 0 0-.394-.082Zm-.238 1.812h-.3V.586h.569a.805.805 0 0 1 .437.1.387.387 0 0 1 .152.346.451.451 0 0 1-.031.178.307.307 0 0 1-.085.121.358.358 0 0 1-.125.072.589.589 0 0 1-.155.032l.4.657h-.312l-.367-.644h-.188v.644Zm0-1.274v.4h.267a.536.536 0 0 0 .212-.037c.055-.023.083-.082.083-.173a.15.15 0 0 0-.03-.1.189.189 0 0 0-.074-.057.322.322 0 0 0-.1-.026.755.755 0 0 0-.105-.007Z" fill="#bd243a" /></symbol><symbol viewBox="0 0 134.786 11.619" id="logo_description"><path d="M99.461 11.619c-1.644 0-2.626-.784-2.626-2.1a1.653 1.653 0 0 1 .656-1.339 1.115 1.115 0 0 1-.5-1.035 1.236 1.236 0 0 1 .783-1.138 2.2 2.2 0 0 1-.481-1.4 2.077 2.077 0 0 1 2.16-2.134 2.131 2.131 0 0 1 1.1.291l1.137-.644.366.67-.884.492a2 2 0 0 1 .442 1.326 2.055 2.055 0 0 1-2.16 2.135 2.27 2.27 0 0 1-1.186-.3.713.713 0 0 0-.517.707c0 .547.547.606.782.606h1.643c1.229 0 1.906.592 1.906 1.667-.007 1.415-.935 2.196-2.621 2.196ZM98.16 8.4a1.254 1.254 0 0 0-.568 1.15c0 .867.681 1.363 1.868 1.363 1.163 0 1.857-.519 1.857-1.389 0-.741-.393-1.086-1.238-1.086h-1.3a4.636 4.636 0 0 1-.619-.038Zm1.288-5.24a1.353 1.353 0 0 0-1.376 1.451 1.379 1.379 0 1 0 2.753 0 1.354 1.354 0 0 0-1.377-1.453Zm25.966 5.884a3.088 3.088 0 0 1-2.981-3.284 2.995 2.995 0 1 1 5.962 0 3.088 3.088 0 0 1-2.981 3.282Zm0-5.835a2.315 2.315 0 0 0-2.159 2.551 2.189 2.189 0 1 0 4.318 0 2.315 2.315 0 0 0-2.159-2.552Zm-5.883 5.835c-1.026 0-1.591-.677-1.591-1.907V3.309h-1.124v-.733h1.124V.518l.783-.518v2.576h1.718v.734h-1.718v3.951c0 .676.323 1.049.909 1.049a1.544 1.544 0 0 0 .8-.2l.215.708a2.422 2.422 0 0 1-1.116.224Zm-7.619 0a1.8 1.8 0 0 1-1.983-1.933c0-1.344 1.04-2.084 2.929-2.084h1.061v-.279a1.345 1.345 0 0 0-1.465-1.541 1.506 1.506 0 0 0-1.516 1.187l-.759-.177a2.3 2.3 0 0 1 4.522.506v4.218h-.594l-.189-.985a2.162 2.162 0 0 1-2.007 1.086Zm.972-3.284c-1.4 0-2.134.467-2.134 1.351a1.11 1.11 0 0 0 1.238 1.2A2.042 2.042 0 0 0 113.919 6v-.24ZM91.8 9.042c-1.665 0-2.829-1.35-2.829-3.284s1.161-3.283 2.829-3.283a2.711 2.711 0 0 1 2.791 2.93v.353h-4.8a2.982 2.982 0 0 0 .547 1.857 1.792 1.792 0 0 0 1.46.695 1.957 1.957 0 0 0 1.958-1.364l.694.34a2.717 2.717 0 0 1-2.65 1.756Zm0-5.835a2.017 2.017 0 0 0-1.96 1.819h3.941A1.878 1.878 0 0 0 91.8 3.208Zm-5.772 5.835c-1.026 0-1.591-.677-1.591-1.907V3.309h-1.123v-.733h1.123V.518L85.22 0v2.576h1.718v.734H85.22v3.951c0 .676.323 1.049.91 1.049a1.548 1.548 0 0 0 .8-.2l.214.708a2.412 2.412 0 0 1-1.116.224Zm-31.856 0a3.088 3.088 0 0 1-2.981-3.284 2.995 2.995 0 1 1 5.962 0 3.088 3.088 0 0 1-2.981 3.284Zm0-5.835a2.315 2.315 0 0 0-2.159 2.551 2.189 2.189 0 1 0 4.318 0 2.315 2.315 0 0 0-2.159-2.55ZM43.89 9.042c-1.026 0-1.591-.677-1.591-1.907V3.309h-1.124v-.733H42.3V.518L43.082 0v2.576H44.8v.734h-1.718v3.951c0 .676.323 1.049.909 1.049a1.55 1.55 0 0 0 .8-.2l.209.706a2.417 2.417 0 0 1-1.11.226Zm-7.619 0a1.8 1.8 0 0 1-1.983-1.933c0-1.344 1.04-2.084 2.93-2.084h1.06v-.277a1.344 1.344 0 0 0-1.464-1.541A1.5 1.5 0 0 0 35.3 4.395l-.758-.177a2.295 2.295 0 0 1 4.522.506v4.217h-.594l-.19-.985a2.161 2.161 0 0 1-2.009 1.086Zm.972-3.284c-1.4 0-2.134.467-2.134 1.351a1.11 1.11 0 0 0 1.237 1.2A2.042 2.042 0 0 0 38.278 6v-.24ZM22.624 9.042a3.088 3.088 0 0 1-2.981-3.284 2.994 2.994 0 1 1 5.961 0 3.087 3.087 0 0 1-2.98 3.284Zm0-5.835a2.315 2.315 0 0 0-2.159 2.551 2.315 2.315 0 0 0 2.159 2.552 2.315 2.315 0 0 0 2.159-2.551 2.315 2.315 0 0 0-2.159-2.551Zm54.264 5.736H76.1V2.576h.783V3.9a2.518 2.518 0 0 1 2.184-1.427 1.848 1.848 0 0 1 1.957 2.1v4.368h-.783V4.673c0-.972-.438-1.465-1.3-1.465-1.212 0-2.058 1.21-2.058 2.943v2.79Zm-16.38 0h-.783V2.576h.783V3.9a2.518 2.518 0 0 1 2.184-1.427 1.848 1.848 0 0 1 1.958 2.1v4.368h-.784V4.673c0-.972-.438-1.465-1.3-1.465-1.212 0-2.058 1.21-2.058 2.943v2.79Zm-47.726 0H12V2.576h.782V3.9a2.518 2.518 0 0 1 2.184-1.427 1.848 1.848 0 0 1 1.958 2.1v4.368h-.784V4.673c0-.972-.438-1.465-1.3-1.465-1.212 0-2.058 1.21-2.058 2.943v2.79Zm-7.889 0H4.11V2.576h.783V3.9a2.518 2.518 0 0 1 2.185-1.425 1.848 1.848 0 0 1 1.957 2.1v4.366h-.783V4.673c0-.972-.438-1.465-1.3-1.465-1.212 0-2.058 1.21-2.058 2.943v2.79Zm68.136 0h-.783V2.577h.783v6.364Zm-24.658 0h-.783V2.577h.783v6.364Zm-47.336 0H.253V2.577h.782v6.364Zm130.922 0h-.783V2.576h.783v1.137a1.986 1.986 0 0 1 1.869-1.238 2.214 2.214 0 0 1 .959.215l-.176.745a1.841 1.841 0 0 0-.9-.228c-1.067 0-1.756 1.284-1.756 3.271v2.463Zm-26.663 0h-.783V2.576h.783v1.137a1.986 1.986 0 0 1 1.869-1.238 2.215 2.215 0 0 1 .959.215l-.176.745a1.85 1.85 0 0 0-.9-.228c-1.066 0-1.755 1.284-1.755 3.271v2.463Zm-74.931 0H29.5l-2.143-6.367h.821l1.755 5.316 1.756-5.316h.821l-2.146 6.365Zm42.275-7.554a.63.63 0 0 1-.644-.644.644.644 0 1 1 1.288 0 .629.629 0 0 1-.644.644Zm-24.659 0a.629.629 0 0 1-.644-.644.644.644 0 1 1 1.288 0 .63.63 0 0 1-.644.644Zm-47.336 0A.629.629 0 0 1 0 .745.63.63 0 0 1 .643.1a.63.63 0 0 1 .644.644.63.63 0 0 1-.644.645Z" fill="#1a1919" /></symbol><symbol viewBox="0 0 136 23" id="logo_footer"><path d="M90.527 23a9.446 9.446 0 0 1-5.366-1.656 9.349 9.349 0 0 1-3.414-4.251 9.237 9.237 0 0 1-.486-1.645 9.432 9.432 0 0 1-.174-1.791 9.3 9.3 0 0 1 .166-1.742 9.436 9.436 0 1 1 18.539 3.533H85.44a5.3 5.3 0 0 0 .954 1.645 5.43 5.43 0 0 0 8.267 0h4.646a9.331 9.331 0 0 1-3.413 4.251A9.448 9.448 0 0 1 90.527 23Zm0-14.688a5.4 5.4 0 0 0-5.1 3.6h10.204a5.4 5.4 0 0 0-5.104-3.6ZM51.786 23a9.444 9.444 0 0 1-8.78-5.907 9.341 9.341 0 0 1 8.78-12.78 9.342 9.342 0 0 1 9.266 11.135H46.7a5.289 5.289 0 0 0 .953 1.645 5.432 5.432 0 0 0 8.269 0h4.645a9.343 9.343 0 0 1-3.413 4.251A9.448 9.448 0 0 1 51.786 23Zm0-14.688a5.4 5.4 0 0 0-5.1 3.6H56.89a5.4 5.4 0 0 0-5.104-3.6ZM9.439 23a9.444 9.444 0 0 1-8.78-5.907 9.143 9.143 0 0 1-.484-1.645 9.286 9.286 0 0 1-.01-3.533 9.459 9.459 0 0 1 18.549 0 9.335 9.335 0 0 1-.01 3.533H4.352a5.289 5.289 0 0 0 .948 1.645 5.431 5.431 0 0 0 8.268 0h4.646a9.347 9.347 0 0 1-3.414 4.251A9.446 9.446 0 0 1 9.439 23Zm0-14.688a5.4 5.4 0 0 0-5.1 3.6h10.204a5.4 5.4 0 0 0-5.104-3.6Zm61.9 14.666h-4.92V4.361H71.1v3.773h.07a5.947 5.947 0 0 1 .93-1.526 6.127 6.127 0 0 1 1.351-1.2 6.664 6.664 0 0 1 1.628-.772 5.962 5.962 0 0 1 1.8-.275 3.885 3.885 0 0 1 1.074.171V9.06a10.06 10.06 0 0 0-.832-.121 9.19 9.19 0 0 0-.935-.051 5.305 5.305 0 0 0-2.288.446 3.981 3.981 0 0 0-1.498 1.218 4.869 4.869 0 0 0-.814 1.8 9.794 9.794 0 0 0-.242 2.229v8.394Zm-38.1 0h-5.471L21.635 4.439H26.8L30.581 17.1h.07L34.42 4.439h4.886l-6.063 18.538Zm99.3-.086a14.5 14.5 0 0 1-2.166-.155 5.158 5.158 0 0 1-1.8-.6 3.2 3.2 0 0 1-1.23-1.269 4.515 4.515 0 0 1-.45-2.162V7.62h-2.981V4.361h2.988V.834h4.92v3.527h3.6V7.62h-3.6v9.406a2.382 2.382 0 0 0 .415 1.646 2.436 2.436 0 0 0 1.663.412c.272 0 .541-.012.8-.034a6.864 6.864 0 0 0 .727-.1v3.773a11.839 11.839 0 0 1-1.385.138c-.518.019-1.02.03-1.495.03Zm-19.878 0a15.093 15.093 0 0 1-3.049-.309 8.135 8.135 0 0 1-2.651-1.03 5.631 5.631 0 0 1-2.72-4.87h4.678a2.657 2.657 0 0 0 .329 1.355 2.839 2.839 0 0 0 .849.926 3.688 3.688 0 0 0 1.2.532 5.7 5.7 0 0 0 1.4.171 5.278 5.278 0 0 0 1.092-.12 3.782 3.782 0 0 0 1.039-.377 2.379 2.379 0 0 0 .779-.686 1.8 1.8 0 0 0 .312-1.081c0-.728-.5-1.281-1.473-1.646a29.9 29.9 0 0 0-4.1-1.1 24.49 24.49 0 0 1-2.1-.565 7.184 7.184 0 0 1-1.819-.859 4.188 4.188 0 0 1-1.282-1.337 3.772 3.772 0 0 1-.485-1.972 5.313 5.313 0 0 1 .676-2.813 4.982 4.982 0 0 1 1.784-1.733 7.922 7.922 0 0 1 2.495-.892 15.639 15.639 0 0 1 2.84-.257 14.5 14.5 0 0 1 2.824.275 7.583 7.583 0 0 1 2.443.926 5.639 5.639 0 0 1 1.786 1.732 5.811 5.811 0 0 1 .848 2.727h-4.676a2.132 2.132 0 0 0-1.073-1.9 4.982 4.982 0 0 0-2.288-.5 8.4 8.4 0 0 0-.9.052 3.023 3.023 0 0 0-.884.222 1.822 1.822 0 0 0-.676.5 1.312 1.312 0 0 0-.277.876 1.331 1.331 0 0 0 .486 1.062 3.752 3.752 0 0 0 1.264.669 15.972 15.972 0 0 0 1.784.464c.625.128 1.294.274 2.044.446a21.374 21.374 0 0 1 2.1.582 6.981 6.981 0 0 1 1.819.909 4.454 4.454 0 0 1 1.282 1.406 4.117 4.117 0 0 1 .486 2.075 5.375 5.375 0 0 1-2.565 4.837 7.64 7.64 0 0 1-2.615 1.011 15.48 15.48 0 0 1-3 .291Zm21.952-20.23a1.512 1.512 0 0 1-.525-.093 1.333 1.333 0 0 1-.44-.267 1.287 1.287 0 0 1-.418-.973 1.313 1.313 0 0 1 .113-.549 1.313 1.313 0 0 1 .3-.419 1.4 1.4 0 0 1 .44-.267 1.485 1.485 0 0 1 .535-.094 1.5 1.5 0 0 1 .524.094 1.376 1.376 0 0 1 .44.267 1.278 1.278 0 0 1 .418.968 1.292 1.292 0 0 1-.113.553 1.278 1.278 0 0 1-.3.42 1.315 1.315 0 0 1-.44.267 1.529 1.529 0 0 1-.529.092Zm0-2.377a1.011 1.011 0 0 0-.4.079.982.982 0 0 0-.323.217 1.057 1.057 0 0 0-.215.329 1.086 1.086 0 0 0-.079.419 1.071 1.071 0 0 0 .294.754 1.026 1.026 0 0 0 1.115.219.97.97 0 0 0 .322-.219 1.073 1.073 0 0 0 .3-.754 1.051 1.051 0 0 0-.3-.748.97.97 0 0 0-.322-.217 1.012 1.012 0 0 0-.387-.08Zm-.239 1.79h-.3V.581h.569a.811.811 0 0 1 .437.1.377.377 0 0 1 .152.342.44.44 0 0 1-.031.176.3.3 0 0 1-.085.119.388.388 0 0 1-.116.072.691.691 0 0 1-.155.032l.4.651h-.312l-.367-.638h-.188v.638Zm0-1.262V1.2h.267a.54.54 0 0 0 .212-.036c.055-.022.083-.079.083-.17a.147.147 0 0 0-.03-.1.186.186 0 0 0-.074-.056.322.322 0 0 0-.1-.026.738.738 0 0 0-.105-.007Z" fill="#fff" /></symbol><symbol viewBox="0 0 36 28" id="rss"><text transform="translate(18 23)" font-size="21" font-family="SegoeUI, Segoe UI"><tspan x="-17.437" y="0">RSS</tspan></text></symbol><symbol viewBox="0 0 17.49 17.491" id="shape"><path d="M6.5 0A6.507 6.507 0 0 0 0 6.5 6.507 6.507 0 0 0 6.5 13a6.5 6.5 0 0 0 4.226-1.566l.274.274v.792l5 4.991L17.49 16l-4.988-5h-.794l-.276-.275A6.494 6.494 0 0 0 13 6.5 6.507 6.507 0 0 0 6.5 0Zm0 11A4.505 4.505 0 0 1 2 6.5 4.505 4.505 0 0 1 6.5 2 4.505 4.505 0 0 1 11 6.5 4.505 4.505 0 0 1 6.5 11Z" /></symbol><symbol viewBox="0 0 20 16" id="twitter"><path d="M17.944 3.987c.013.175.013.35.013.525A11.491 11.491 0 0 1 6.294 16 11.712 11.712 0 0 1 0 14.188a8.608 8.608 0 0 0 .99.05 8.289 8.289 0 0 0 5.089-1.725 4.1 4.1 0 0 1-3.833-2.8 5.246 5.246 0 0 0 .774.062 4.4 4.4 0 0 0 1.08-.137A4.054 4.054 0 0 1 .812 5.675v-.05a4.176 4.176 0 0 0 1.853.512A4.019 4.019 0 0 1 .838 2.775 3.961 3.961 0 0 1 1.4.737a11.711 11.711 0 0 0 8.448 4.225 4.492 4.492 0 0 1-.1-.925A4.067 4.067 0 0 1 13.845 0a4.118 4.118 0 0 1 2.995 1.275A8.145 8.145 0 0 0 19.442.3a4.038 4.038 0 0 1-1.8 2.225A8.316 8.316 0 0 0 20 1.9a8.74 8.74 0 0 1-2.056 2.087Z" /></symbol><symbol viewBox="0 0 56 21" id="ua_ru"><text data-name="UA | RU" transform="translate(28 17)" font-size="16" font-family="SegoeUI, Segoe UI"><tspan x="-27.039" y="0">UA | RU</tspan></text></symbol><symbol viewBox="0 0 20 14" id="youtube"><path d="M2.186 13.581a2.471 2.471 0 0 1-1.768-1.743A26.152 26.152 0 0 1 0 7.014a26.144 26.144 0 0 1 .418-4.823A2.509 2.509 0 0 1 2.186.419C3.746 0 10 0 10 0s6.254 0 7.814.419a2.509 2.509 0 0 1 1.769 1.772A26.144 26.144 0 0 1 20 7.014a26.152 26.152 0 0 1-.418 4.824 2.471 2.471 0 0 1-1.769 1.743C16.254 14 10 14 10 14s-6.254 0-7.814-.419Z" /></symbol></defs><use id="c_icon-usage" xlink:href="#c_icon" class="sprite-symbol-usage" /><use id="facebook-usage" xlink:href="#facebook" class="sprite-symbol-usage" /><use id="icon_tagging-usage" xlink:href="#icon_tagging" class="sprite-symbol-usage" /><use id="logo-usage" xlink:href="#logo" class="sprite-symbol-usage" /><use id="logo_description-usage" xlink:href="#logo_description" class="sprite-symbol-usage" /><use id="logo_footer-usage" xlink:href="#logo_footer" class="sprite-symbol-usage" /><use id="rss-usage" xlink:href="#rss" class="sprite-symbol-usage" /><use id="shape-usage" xlink:href="#shape" class="sprite-symbol-usage" /><use id="twitter-usage" xlink:href="#twitter" class="sprite-symbol-usage" /><use id="ua_ru-usage" xlink:href="#ua_ru" class="sprite-symbol-usage" /><use id="youtube-usage" xlink:href="#youtube" class="sprite-symbol-usage" /></svg>