<svg xmlns="http://www.w3.org/2000/svg" width="135.994" height="23.234" viewBox="0 0 135.994 23.234">
  <path id="лого" d="M90.524,23.234a9.438,9.438,0,0,1-8.78-5.967,9.285,9.285,0,0,1-.486-1.661,9.627,9.627,0,0,1-.174-1.81A9.44,9.44,0,0,1,99.8,12.036a9.524,9.524,0,0,1-.01,3.569H85.435a5.4,5.4,0,0,0,9.222,1.661H99.3a9.438,9.438,0,0,1-8.779,5.967Zm0-14.837a5.4,5.4,0,0,0-5.1,3.64H95.627A5.4,5.4,0,0,0,90.524,8.4ZM51.784,23.234a9.429,9.429,0,0,1-9.265-7.628,9.556,9.556,0,0,1-.174-1.81,9.439,9.439,0,0,1,18.713-1.759,9.5,9.5,0,0,1-.009,3.569H46.7a5.4,5.4,0,0,0,9.221,1.661h4.645a9.438,9.438,0,0,1-8.779,5.967Zm0-14.837a5.4,5.4,0,0,0-5.1,3.64H56.887A5.4,5.4,0,0,0,51.784,8.4ZM9.439,23.234a9.44,9.44,0,0,1-8.78-5.967,9.309,9.309,0,0,1-.484-1.661,9.439,9.439,0,1,1,18.538-3.569,9.524,9.524,0,0,1-.01,3.569H4.351a5.4,5.4,0,0,0,9.222,1.661h4.645a9.438,9.438,0,0,1-8.779,5.967Zm0-14.837a5.4,5.4,0,0,0-5.1,3.64H14.542A5.4,5.4,0,0,0,9.439,8.4Zm61.9,14.815H66.419V4.406H71.1V8.217h.07A6.1,6.1,0,0,1,72.1,6.675a6.189,6.189,0,0,1,1.352-1.212,6.632,6.632,0,0,1,1.627-.779,5.918,5.918,0,0,1,1.8-.277,3.859,3.859,0,0,1,1.074.173V9.153c-.226-.045-.506-.086-.832-.122a8.945,8.945,0,0,0-.935-.052A5.256,5.256,0,0,0,73.9,9.43,3.981,3.981,0,0,0,72.4,10.66a4.959,4.959,0,0,0-.814,1.819,9.991,9.991,0,0,0-.242,2.252v8.48Zm-38.1,0H27.767L21.634,4.485H26.8l3.783,12.793h.07L34.418,4.485H39.3L33.241,23.21Zm99.3-.087a14.468,14.468,0,0,1-2.165-.156,5.117,5.117,0,0,1-1.8-.607,3.211,3.211,0,0,1-1.229-1.282,4.587,4.587,0,0,1-.451-2.183V7.7h-2.98V4.406h2.98V.843h4.92V4.406h3.6V7.7h-3.6v9.5a2.424,2.424,0,0,0,.415,1.663,2.422,2.422,0,0,0,1.663.416c.289,0,.55-.011.8-.035a6.431,6.431,0,0,0,.727-.1v3.812a11.82,11.82,0,0,1-1.385.139C133.515,23.112,133.014,23.124,132.538,23.124Zm-19.877,0a14.967,14.967,0,0,1-3.049-.311,8.085,8.085,0,0,1-2.65-1.04,5.953,5.953,0,0,1-1.905-1.922,6.044,6.044,0,0,1-.815-3h4.677a2.7,2.7,0,0,0,.329,1.368,2.864,2.864,0,0,0,.849.936,3.652,3.652,0,0,0,1.2.536,5.606,5.606,0,0,0,1.4.174,5.224,5.224,0,0,0,1.092-.122,3.682,3.682,0,0,0,1.039-.381,2.369,2.369,0,0,0,.779-.693,1.828,1.828,0,0,0,.312-1.091c0-.736-.5-1.3-1.473-1.663a29.533,29.533,0,0,0-4.1-1.109c-.711-.16-1.417-.352-2.1-.571a7.134,7.134,0,0,1-1.818-.868,4.2,4.2,0,0,1-1.283-1.35,3.849,3.849,0,0,1-.485-1.993,5.407,5.407,0,0,1,.676-2.84,5,5,0,0,1,1.785-1.75,7.884,7.884,0,0,1,2.494-.9,15.481,15.481,0,0,1,2.84-.259,14.365,14.365,0,0,1,2.824.276,7.556,7.556,0,0,1,2.443.936,5.655,5.655,0,0,1,1.785,1.75,5.917,5.917,0,0,1,.849,2.755h-4.678A2.162,2.162,0,0,0,114.6,8.069a4.946,4.946,0,0,0-2.287-.5,8.625,8.625,0,0,0-.9.052,3.023,3.023,0,0,0-.885.225,1.833,1.833,0,0,0-.675.5,1.331,1.331,0,0,0-.278.884,1.353,1.353,0,0,0,.486,1.074,3.748,3.748,0,0,0,1.264.676,15.789,15.789,0,0,0,1.784.467c.675.141,1.363.292,2.044.451a21.153,21.153,0,0,1,2.1.59,6.943,6.943,0,0,1,1.819.917,4.488,4.488,0,0,1,1.282,1.421,4.186,4.186,0,0,1,.486,2.1,5.441,5.441,0,0,1-2.565,4.885,7.583,7.583,0,0,1-2.615,1.021A15.343,15.343,0,0,1,112.661,23.124ZM134.612,2.688a1.485,1.485,0,0,1-.525-.094,1.339,1.339,0,0,1-.44-.27,1.307,1.307,0,0,1-.418-.983,1.333,1.333,0,0,1,.113-.554,1.314,1.314,0,0,1,.3-.423,1.358,1.358,0,0,1,.44-.269,1.452,1.452,0,0,1,.525-.1,1.468,1.468,0,0,1,.524.1,1.352,1.352,0,0,1,.44.269,1.3,1.3,0,0,1,.3.423,1.319,1.319,0,0,1,.113.554,1.323,1.323,0,0,1-.113.558,1.3,1.3,0,0,1-.3.425,1.328,1.328,0,0,1-.44.27A1.5,1.5,0,0,1,134.612,2.688Zm0-2.4a1.011,1.011,0,0,0-.721.3,1.083,1.083,0,0,0-.215.333,1.113,1.113,0,0,0-.079.423,1.125,1.125,0,0,0,.079.425,1.084,1.084,0,0,0,.215.337.987.987,0,0,0,.323.221,1.029,1.029,0,0,0,.792,0,.963.963,0,0,0,.322-.221,1.076,1.076,0,0,0,.217-.337,1.092,1.092,0,0,0,.081-.425,1.081,1.081,0,0,0-.081-.423,1.055,1.055,0,0,0-.217-.333.969.969,0,0,0-.322-.219A.99.99,0,0,0,134.612.287ZM134.374,2.1h-.3V.586h.569a.805.805,0,0,1,.437.1.387.387,0,0,1,.152.346.451.451,0,0,1-.031.178.307.307,0,0,1-.085.121.358.358,0,0,1-.125.072.589.589,0,0,1-.155.032l.4.657-.312,0-.367-.644h-.188v.644Zm0-1.274v.4h.267a.536.536,0,0,0,.212-.037c.055-.023.083-.082.083-.173a.15.15,0,0,0-.03-.1.189.189,0,0,0-.074-.057.322.322,0,0,0-.1-.026.755.755,0,0,0-.105-.007Z" fill="#bd243a"/>
</svg>
