<svg xmlns="http://www.w3.org/2000/svg" width="134.786" height="11.619" viewBox="0 0 134.786 11.619">
  <path id="дескриптор" d="M99.461,11.619c-1.644,0-2.626-.784-2.626-2.1a1.653,1.653,0,0,1,.656-1.339,1.115,1.115,0,0,1-.5-1.035,1.236,1.236,0,0,1,.783-1.138,2.2,2.2,0,0,1-.481-1.4,2.077,2.077,0,0,1,2.16-2.134,2.131,2.131,0,0,1,1.1.291l1.137-.644.366.67-.884.492a2,2,0,0,1,.442,1.326,2.055,2.055,0,0,1-2.16,2.135,2.27,2.27,0,0,1-1.186-.3.713.713,0,0,0-.517.707c0,.547.547.606.782.606h1.643c1.229,0,1.906.592,1.906,1.667C102.075,10.838,101.147,11.619,99.461,11.619ZM98.16,8.4h0a1.254,1.254,0,0,0-.568,1.15c0,.867.681,1.363,1.868,1.363,1.163,0,1.857-.519,1.857-1.389,0-.741-.393-1.086-1.238-1.086h-1.3A4.636,4.636,0,0,1,98.16,8.4Zm1.288-5.24a1.353,1.353,0,0,0-1.376,1.451,1.379,1.379,0,1,0,2.753,0A1.354,1.354,0,0,0,99.448,3.158Zm25.966,5.884a3.088,3.088,0,0,1-2.981-3.284,2.995,2.995,0,1,1,5.962,0A3.088,3.088,0,0,1,125.414,9.042Zm0-5.835a2.315,2.315,0,0,0-2.159,2.551,2.189,2.189,0,1,0,4.318,0A2.315,2.315,0,0,0,125.414,3.208Zm-5.883,5.835c-1.026,0-1.591-.677-1.591-1.907V3.309h-1.124V2.576h1.124V.518L118.723,0V2.576h1.718v.734h-1.718V7.261c0,.676.323,1.049.909,1.049a1.544,1.544,0,0,0,.8-.2l.215.708A2.422,2.422,0,0,1,119.531,9.042Zm-7.619,0a1.8,1.8,0,0,1-1.983-1.933c0-1.344,1.04-2.084,2.929-2.084h1.061V4.748a1.345,1.345,0,0,0-1.465-1.541,1.506,1.506,0,0,0-1.516,1.187l-.759-.177a2.3,2.3,0,0,1,4.522.506V8.941h-.594l-.189-.985A2.162,2.162,0,0,1,111.911,9.042Zm.972-3.284c-1.4,0-2.134.467-2.134,1.351a1.11,1.11,0,0,0,1.238,1.2A2.042,2.042,0,0,0,113.919,6v-.24ZM91.8,9.042c-1.665,0-2.829-1.35-2.829-3.284S90.132,2.475,91.8,2.475a2.711,2.711,0,0,1,2.791,2.93v.353h-4.8a2.982,2.982,0,0,0,.547,1.857,1.792,1.792,0,0,0,1.46.695,1.957,1.957,0,0,0,1.958-1.364l.694.34A2.717,2.717,0,0,1,91.8,9.042Zm0-5.835A2.017,2.017,0,0,0,89.84,5.026h3.941A1.878,1.878,0,0,0,91.8,3.208ZM86.028,9.042c-1.026,0-1.591-.677-1.591-1.907V3.309H83.314V2.576h1.123V.518L85.22,0V2.576h1.718v.734H85.22V7.261c0,.676.323,1.049.91,1.049a1.548,1.548,0,0,0,.8-.2l.214.708A2.412,2.412,0,0,1,86.028,9.042Zm-31.856,0a3.088,3.088,0,0,1-2.981-3.284,2.995,2.995,0,1,1,5.962,0A3.088,3.088,0,0,1,54.172,9.042Zm0-5.835a2.315,2.315,0,0,0-2.159,2.551,2.189,2.189,0,1,0,4.318,0A2.315,2.315,0,0,0,54.172,3.208ZM43.89,9.042c-1.026,0-1.591-.677-1.591-1.907V3.309H41.175V2.576H42.3V.518L43.082,0V2.576H44.8v.734H43.082V7.261c0,.676.323,1.049.909,1.049a1.55,1.55,0,0,0,.8-.2L45,8.816A2.417,2.417,0,0,1,43.89,9.042Zm-7.619,0a1.8,1.8,0,0,1-1.983-1.933c0-1.344,1.04-2.084,2.93-2.084h1.06V4.748a1.344,1.344,0,0,0-1.464-1.541A1.5,1.5,0,0,0,35.3,4.395l-.758-.177a2.295,2.295,0,0,1,4.522.506V8.941h-.594l-.19-.985A2.161,2.161,0,0,1,36.271,9.042Zm.972-3.284c-1.4,0-2.134.467-2.134,1.351a1.11,1.11,0,0,0,1.237,1.2A2.042,2.042,0,0,0,38.278,6v-.24ZM22.624,9.042a3.088,3.088,0,0,1-2.981-3.284,2.994,2.994,0,1,1,5.961,0A3.087,3.087,0,0,1,22.624,9.042Zm0-5.835a2.315,2.315,0,0,0-2.159,2.551A2.315,2.315,0,0,0,22.624,8.31a2.315,2.315,0,0,0,2.159-2.551A2.315,2.315,0,0,0,22.624,3.208ZM76.888,8.943H76.1V2.576h.783V3.9a2.518,2.518,0,0,1,2.184-1.427,1.848,1.848,0,0,1,1.957,2.1V8.941h-.783V4.673c0-.972-.438-1.465-1.3-1.465-1.212,0-2.058,1.21-2.058,2.943V8.941Zm-16.38,0h-.783V2.576h.783V3.9a2.518,2.518,0,0,1,2.184-1.427,1.848,1.848,0,0,1,1.958,2.1V8.941h-.784V4.673c0-.972-.438-1.465-1.3-1.465-1.212,0-2.058,1.21-2.058,2.943V8.941Zm-47.726,0H12V2.576h.782V3.9a2.518,2.518,0,0,1,2.184-1.427,1.848,1.848,0,0,1,1.958,2.1V8.941h-.784V4.673c0-.972-.438-1.465-1.3-1.465-1.212,0-2.058,1.21-2.058,2.943V8.941Zm-7.889,0H4.11V2.576h.783V3.9A2.518,2.518,0,0,1,7.078,2.475a1.848,1.848,0,0,1,1.957,2.1V8.941H8.252V4.673c0-.972-.438-1.465-1.3-1.465-1.212,0-2.058,1.21-2.058,2.943V8.941Zm68.136,0h-.783V2.577h.783V8.941Zm-24.658,0h-.783V2.577h.783V8.941Zm-47.336,0H.253V2.577h.782V8.941Zm130.922,0h-.783V2.576h.783V3.713a1.986,1.986,0,0,1,1.869-1.238,2.214,2.214,0,0,1,.959.215l-.176.745a1.841,1.841,0,0,0-.9-.228c-1.067,0-1.756,1.284-1.756,3.271V8.941Zm-26.663,0h-.783V2.576h.783V3.713a1.986,1.986,0,0,1,1.869-1.238,2.215,2.215,0,0,1,.959.215l-.176.745a1.85,1.85,0,0,0-.9-.228c-1.066,0-1.755,1.284-1.755,3.271V8.941Zm-74.931,0H29.5L27.357,2.576h.821l1.755,5.316,1.756-5.316h.821L30.364,8.941ZM72.638,1.389a.63.63,0,0,1-.644-.644.644.644,0,1,1,1.288,0A.629.629,0,0,1,72.638,1.389Zm-24.659,0a.629.629,0,0,1-.644-.644.644.644,0,1,1,1.288,0A.63.63,0,0,1,47.979,1.389Zm-47.336,0A.629.629,0,0,1,0,.745.63.63,0,0,1,.643.1a.63.63,0,0,1,.644.644A.63.63,0,0,1,.643,1.389Z" fill="#1a1919"/>
</svg>
