<svg xmlns="http://www.w3.org/2000/svg" width="136" height="23" viewBox="0 0 136 23">
  <path id="лого" d="M90.527,23a9.446,9.446,0,0,1-5.366-1.656,9.349,9.349,0,0,1-3.414-4.251,9.237,9.237,0,0,1-.486-1.645,9.432,9.432,0,0,1-.174-1.791,9.3,9.3,0,0,1,.166-1.742,9.436,9.436,0,1,1,18.539,3.533H85.44a5.3,5.3,0,0,0,.954,1.645,5.43,5.43,0,0,0,8.267,0h4.646a9.331,9.331,0,0,1-3.413,4.251A9.448,9.448,0,0,1,90.527,23Zm0-14.688a5.4,5.4,0,0,0-5.1,3.6H95.631A5.4,5.4,0,0,0,90.527,8.312ZM51.786,23a9.444,9.444,0,0,1-8.78-5.907,9.341,9.341,0,0,1,8.78-12.78,9.342,9.342,0,0,1,9.266,11.135H46.7a5.289,5.289,0,0,0,.953,1.645,5.432,5.432,0,0,0,8.269,0h4.645a9.343,9.343,0,0,1-3.413,4.251A9.448,9.448,0,0,1,51.786,23Zm0-14.688a5.4,5.4,0,0,0-5.1,3.6H56.89A5.4,5.4,0,0,0,51.786,8.312ZM9.439,23a9.444,9.444,0,0,1-8.78-5.907,9.143,9.143,0,0,1-.484-1.645,9.286,9.286,0,0,1-.01-3.533,9.459,9.459,0,0,1,18.549,0,9.335,9.335,0,0,1-.01,3.533H4.352A5.289,5.289,0,0,0,5.3,17.093a5.431,5.431,0,0,0,8.268,0h4.646a9.347,9.347,0,0,1-3.414,4.251A9.446,9.446,0,0,1,9.439,23Zm0-14.688a5.4,5.4,0,0,0-5.1,3.6H14.543A5.4,5.4,0,0,0,9.439,8.312Zm61.9,14.666h-4.92V4.361H71.1V8.134h.07A5.947,5.947,0,0,1,72.1,6.608a6.127,6.127,0,0,1,1.351-1.2,6.664,6.664,0,0,1,1.628-.772,5.962,5.962,0,0,1,1.8-.275,3.885,3.885,0,0,1,1.074.171V9.06c-.23-.045-.509-.086-.832-.121a9.19,9.19,0,0,0-.935-.051,5.305,5.305,0,0,0-2.288.446A3.981,3.981,0,0,0,72.4,10.552a4.869,4.869,0,0,0-.814,1.8,9.794,9.794,0,0,0-.242,2.229v8.394Zm-38.1,0H27.768L21.635,4.439H26.8L30.581,17.1h.07L34.42,4.439h4.886L33.243,22.977Zm99.3-.086a14.5,14.5,0,0,1-2.166-.155,5.158,5.158,0,0,1-1.8-.6,3.2,3.2,0,0,1-1.23-1.269,4.515,4.515,0,0,1-.45-2.162V7.62h-2.981V4.361H126.9V.834h4.92V4.361h3.6V7.62h-3.6v9.406a2.382,2.382,0,0,0,.415,1.646,2.436,2.436,0,0,0,1.663.412c.272,0,.541-.012.8-.034a6.864,6.864,0,0,0,.727-.1v3.773a11.839,11.839,0,0,1-1.385.138C133.522,22.88,133.02,22.891,132.545,22.891Zm-19.878,0a15.093,15.093,0,0,1-3.049-.309,8.135,8.135,0,0,1-2.651-1.03,5.631,5.631,0,0,1-2.72-4.87h4.678a2.657,2.657,0,0,0,.329,1.355,2.839,2.839,0,0,0,.849.926,3.688,3.688,0,0,0,1.2.532,5.7,5.7,0,0,0,1.4.171,5.278,5.278,0,0,0,1.092-.12,3.782,3.782,0,0,0,1.039-.377,2.379,2.379,0,0,0,.779-.686,1.8,1.8,0,0,0,.312-1.081c0-.728-.5-1.281-1.473-1.646a29.9,29.9,0,0,0-4.1-1.1c-.715-.159-1.421-.349-2.1-.565a7.184,7.184,0,0,1-1.819-.859,4.188,4.188,0,0,1-1.282-1.337,3.772,3.772,0,0,1-.485-1.972,5.313,5.313,0,0,1,.676-2.813,4.982,4.982,0,0,1,1.784-1.733,7.922,7.922,0,0,1,2.495-.892,15.639,15.639,0,0,1,2.84-.257,14.5,14.5,0,0,1,2.824.275,7.583,7.583,0,0,1,2.443.926,5.639,5.639,0,0,1,1.786,1.732,5.811,5.811,0,0,1,.848,2.727H115.68a2.132,2.132,0,0,0-1.073-1.9,4.982,4.982,0,0,0-2.288-.5,8.4,8.4,0,0,0-.9.052,3.023,3.023,0,0,0-.884.222,1.822,1.822,0,0,0-.676.5,1.312,1.312,0,0,0-.277.876,1.331,1.331,0,0,0,.486,1.062,3.752,3.752,0,0,0,1.264.669,15.972,15.972,0,0,0,1.784.464c.625.128,1.294.274,2.044.446a21.374,21.374,0,0,1,2.1.582,6.981,6.981,0,0,1,1.819.909,4.454,4.454,0,0,1,1.282,1.406,4.117,4.117,0,0,1,.486,2.075,5.375,5.375,0,0,1-2.565,4.837,7.64,7.64,0,0,1-2.615,1.011A15.48,15.48,0,0,1,112.667,22.891Zm21.952-20.23a1.512,1.512,0,0,1-.525-.093,1.333,1.333,0,0,1-.44-.267,1.287,1.287,0,0,1-.418-.973,1.313,1.313,0,0,1,.113-.549,1.313,1.313,0,0,1,.3-.419,1.4,1.4,0,0,1,.44-.267A1.485,1.485,0,0,1,134.618,0a1.5,1.5,0,0,1,.524.094,1.376,1.376,0,0,1,.44.267,1.278,1.278,0,0,1,.418.968,1.292,1.292,0,0,1-.113.553,1.278,1.278,0,0,1-.3.42,1.315,1.315,0,0,1-.44.267A1.529,1.529,0,0,1,134.618,2.661Zm0-2.377a1.011,1.011,0,0,0-.4.079.982.982,0,0,0-.323.217,1.057,1.057,0,0,0-.215.329,1.086,1.086,0,0,0-.079.419,1.071,1.071,0,0,0,.294.754,1.026,1.026,0,0,0,1.115.219.97.97,0,0,0,.322-.219,1.073,1.073,0,0,0,.3-.754,1.051,1.051,0,0,0-.3-.748.97.97,0,0,0-.322-.217A1.012,1.012,0,0,0,134.618.284Zm-.239,1.79h-.3V.581h.569a.811.811,0,0,1,.437.1.377.377,0,0,1,.152.342.44.44,0,0,1-.031.176.3.3,0,0,1-.085.119A.388.388,0,0,1,135,1.39a.691.691,0,0,1-.155.032l.4.651-.312,0-.367-.638h-.188v.638Zm0-1.262V1.2h.267a.54.54,0,0,0,.212-.036c.055-.022.083-.079.083-.17a.147.147,0,0,0-.03-.1.186.186,0,0,0-.074-.056.322.322,0,0,0-.1-.026.738.738,0,0,0-.105-.007Z" transform="translate(0)" fill="#fff"/>
</svg>
